#N canvas 56 288 627 300 10;
#N canvas 47 83 591 132 messaging 0;
#X obj 310 86 s l2ork-conductor-broadcast-custom;
#X obj 317 53 list prepend track;
#X obj 201 53 list prepend stage;
#X obj 92 53 list prepend text;
#X obj 549 53 list prepend density;
#X floatatom 201 29 5 0 5 0 - - -, f 5;
#X floatatom 314 29 5 0 2 0 - - -, f 5;
#X obj 433 53 list prepend speed;
#X floatatom 435 29 5 0 1 0 - - -, f 5;
#X floatatom 549 29 5 0 1 0 - - -, f 5;
#X symbolatom 92 29 10 0 0 0 - - -, f 10;
#X obj 92 5 inlet;
#X obj 201 5 inlet;
#X obj 314 5 inlet;
#X obj 435 5 inlet;
#X obj 549 5 inlet;
#X obj 569 86 l2ork_conductor;
#X obj 599 29 list prepend rumble;
#X obj 599 6 inlet;
#X connect 1 0 0 0;
#X connect 2 0 0 0;
#X connect 3 0 0 0;
#X connect 4 0 0 0;
#X connect 5 0 2 0;
#X connect 6 0 1 0;
#X connect 7 0 0 0;
#X connect 8 0 7 0;
#X connect 9 0 4 0;
#X connect 10 0 3 0;
#X connect 11 0 10 0;
#X connect 12 0 5 0;
#X connect 13 0 6 0;
#X connect 14 0 8 0;
#X connect 15 0 9 0;
#X connect 17 0 0 0;
#X connect 18 0 17 0;
#X restore 372 243 pd messaging;
#X obj -37 7 key;
#X obj -37 51 tgl 15 0 empty empty empty 17 7 0 10 -262144 -1 -1 1
1;
#X obj -37 126 cup;
#X obj 32 65 route 0;
#X floatatom -37 148 5 0 0 0 - - -, f 5;
#X obj -37 104 metro 1000;
#X obj -37 169 s count;
#X obj 226 -7 r count;
#X obj 226 12 expr if($f1 < 30 \, 1 \, if($f1 < 60 \, 2 \, if($f1 <
90 \, 3 \, if($f1 < 120 \, 4 \, 0))));
#X msg 32 104 setbang \$1;
#X floatatom 32 86 5 0 0 0 - - -, f 5;
#X obj -37 29 route 47;
#N canvas 651 45 450 300 part-1 0;
#X obj 103 89 inlet;
#X obj 125 236 outlet;
#X msg 124 183 1;
#X msg 164 183 1;
#X msg 204 183 0;
#X msg 12 160 Whooshing sounds;
#X msg 244 183 1;
#X obj 104 124 t b b b b b;
#X obj 60 185 tosymbol;
#X obj 125 213 pack f f f f;
#X obj 58 238 outlet;
#X connect 0 0 7 0;
#X connect 2 0 9 0;
#X connect 3 0 9 1;
#X connect 4 0 9 2;
#X connect 5 0 8 0;
#X connect 6 0 9 3;
#X connect 7 0 5 0;
#X connect 7 1 2 0;
#X connect 7 2 3 0;
#X connect 7 3 4 0;
#X connect 7 4 6 0;
#X connect 8 0 10 0;
#X connect 9 0 1 0;
#X restore 226 91 pd part-1;
#N canvas 179 44 450 300 part-2 0;
#X obj 136 -7 inlet;
#X obj 137 28 t b b b b b;
#X obj 93 90 tosymbol;
#X msg 197 87 2;
#X msg 157 87 2;
#X msg 42 64 Quieter whooshing;
#X msg 237 87 0.25;
#X msg 277 87 0.5;
#X obj 161 148 outlet;
#X obj 161 120 pack f f f f;
#X obj 88 130 outlet;
#X connect 0 0 1 0;
#X connect 1 0 5 0;
#X connect 1 1 4 0;
#X connect 1 2 3 0;
#X connect 1 3 6 0;
#X connect 1 4 7 0;
#X connect 2 0 10 0;
#X connect 3 0 9 1;
#X connect 4 0 9 0;
#X connect 5 0 2 0;
#X connect 6 0 9 2;
#X connect 7 0 9 3;
#X connect 9 0 8 0;
#X restore 287 91 pd part-2;
#X obj 21 148 list prepend count;
#X obj 22 169 s l2ork-conductor-broadcast-custom;
#N canvas 698 63 450 300 part-3 0;
#X obj 153 -43 inlet;
#X obj 154 110 outlet;
#X obj 154 -8 t b b b b b;
#X obj 110 53 tosymbol;
#X msg 214 51 2;
#X msg 59 28 Make it loud!;
#X msg 174 51 5;
#X msg 254 51 1;
#X msg 294 51 1;
#X obj 111 109 outlet;
#X obj 154 76 pack f f f f;
#X connect 0 0 2 0;
#X connect 2 0 5 0;
#X connect 2 1 6 0;
#X connect 2 2 4 0;
#X connect 2 3 7 0;
#X connect 2 4 8 0;
#X connect 3 0 9 0;
#X connect 4 0 10 1;
#X connect 5 0 3 0;
#X connect 6 0 10 0;
#X connect 7 0 10 2;
#X connect 8 0 10 3;
#X connect 10 0 1 0;
#X restore 348 91 pd part-3;
#N canvas 153 107 450 300 part-4 0;
#X obj 162 35 inlet;
#X obj 163 188 outlet;
#X obj 163 70 t b b b b b;
#X obj 119 131 tosymbol;
#X msg 183 129 1;
#X msg 223 129 1;
#X msg 68 106 Back to whooshing;
#X msg 303 129 1;
#X msg 263 129 0.25;
#X obj 163 154 pack f f f f;
#X obj 111 175 outlet;
#X connect 0 0 2 0;
#X connect 2 0 6 0;
#X connect 2 1 4 0;
#X connect 2 2 5 0;
#X connect 2 3 8 0;
#X connect 2 4 7 0;
#X connect 3 0 10 0;
#X connect 4 0 9 0;
#X connect 5 0 9 1;
#X connect 6 0 3 0;
#X connect 7 0 9 3;
#X connect 8 0 9 2;
#X connect 9 0 1 0;
#X restore 409 91 pd part-4;
#X text -41 196 Options for Messages to effect performer GUI(in order
of inlet)- text- stage- track- variance- density;
#N canvas 404 154 450 300 part-5 0;
#X obj 171 10 inlet;
#X obj 172 163 outlet;
#X obj 172 45 t b b b b b;
#X obj 128 106 tosymbol;
#X msg 192 104 0;
#X msg 234 100 0;
#X msg 271 97 0;
#X msg 312 104 0;
#X msg 77 81 Fade out;
#X obj 126 167 outlet;
#X obj 172 129 pack f f f f;
#X connect 0 0 2 0;
#X connect 2 0 8 0;
#X connect 2 1 4 0;
#X connect 2 2 5 0;
#X connect 2 3 6 0;
#X connect 2 4 7 0;
#X connect 3 0 9 0;
#X connect 4 0 10 0;
#X connect 5 0 10 1;
#X connect 6 0 10 2;
#X connect 7 0 10 3;
#X connect 8 0 3 0;
#X connect 10 0 1 0;
#X restore 470 91 pd part-5;
#X obj 226 63 route 1 2 3 4 0;
#X obj 226 44 change;
#X obj 233 158 s l2ork-conductor-broadcast-custom;
#X obj 400 123 list prepend part;
#X obj 227 123 list prepend text;
#X obj 104 85 list prepend rumble;
#X connect 1 0 12 0;
#X connect 2 0 4 0;
#X connect 2 0 6 0;
#X connect 3 0 5 0;
#X connect 3 0 15 0;
#X connect 4 0 11 0;
#X connect 4 1 26 0;
#X connect 5 0 7 0;
#X connect 6 0 3 0;
#X connect 8 0 9 0;
#X connect 9 0 22 0;
#X connect 10 0 3 0;
#X connect 11 0 10 0;
#X connect 12 0 2 0;
#X connect 13 0 25 0;
#X connect 13 1 24 0;
#X connect 14 0 25 0;
#X connect 14 1 24 0;
#X connect 15 0 16 0;
#X connect 17 0 25 0;
#X connect 17 1 24 0;
#X connect 18 0 25 0;
#X connect 18 1 24 0;
#X connect 20 0 25 0;
#X connect 20 1 24 0;
#X connect 21 0 13 0;
#X connect 21 1 14 0;
#X connect 21 2 17 0;
#X connect 21 3 18 0;
#X connect 21 4 20 0;
#X connect 22 0 21 0;
#X connect 24 0 23 0;
#X connect 25 0 23 0;
#X connect 26 0 16 0;
