#N canvas 67 350 536 327 10;
#N canvas 47 73 591 132 messaging 0;
#X obj 310 86 s l2ork-conductor-broadcast-custom;
#X obj 317 53 list prepend track;
#X obj 201 53 list prepend stage;
#X obj 92 53 list prepend text;
#X obj 549 53 list prepend density;
#X floatatom 201 29 5 0 5 0 - - -, f 5;
#X floatatom 314 29 5 0 2 0 - - -, f 5;
#X obj 433 53 list prepend speed;
#X floatatom 435 29 5 0 1 0 - - -, f 5;
#X floatatom 549 29 5 0 1 0 - - -, f 5;
#X symbolatom 92 29 10 0 0 0 - - -, f 10;
#X obj 92 5 inlet;
#X obj 201 5 inlet;
#X obj 314 5 inlet;
#X obj 435 5 inlet;
#X obj 549 5 inlet;
#X obj 569 86 l2ork_conductor;
#X obj 599 29 list prepend rumble;
#X obj 599 6 inlet;
#X connect 1 0 0 0;
#X connect 2 0 0 0;
#X connect 3 0 0 0;
#X connect 4 0 0 0;
#X connect 5 0 2 0;
#X connect 6 0 1 0;
#X connect 7 0 0 0;
#X connect 8 0 7 0;
#X connect 9 0 4 0;
#X connect 10 0 3 0;
#X connect 11 0 10 0;
#X connect 12 0 5 0;
#X connect 13 0 6 0;
#X connect 14 0 8 0;
#X connect 15 0 9 0;
#X connect 17 0 0 0;
#X connect 18 0 17 0;
#X restore 919 29 pd messaging;
#X obj -37 7 key;
#X obj -37 51 tgl 15 0 empty empty empty 17 7 0 10 -262144 -1 -1 0
1;
#X obj -37 126 cup;
#X obj 32 65 route 0;
#X floatatom -37 148 5 0 0 0 - - -, f 5;
#X obj -37 104 metro 1000;
#X obj -37 169 s count;
#X obj 266 -7 r count;
#X msg 32 104 setbang \$1;
#X floatatom 32 86 5 0 0 0 - - -, f 5;
#X obj -37 29 route 47;
#N canvas 95 23 450 300 part-1 0;
#X obj 93 9 inlet;
#X msg 147 103 0;
#X obj 50 105 tosymbol;
#X msg 220 103 750;
#X obj 94 44 t b b b b b b;
#X text 172 6 5 secs of silence;
#X obj 115 133 pack f f f f;
#X msg 114 103 0;
#X msg 187 103 0;
#X msg 2 80 Silence;
#X obj 48 249 s l2ork-conductor-broadcast-custom;
#X obj 220 166 list prepend all part;
#X obj 47 165 list prepend all text;
#X connect 0 0 4 0;
#X connect 1 0 6 1;
#X connect 2 0 12 0;
#X connect 3 0 6 3;
#X connect 4 0 9 0;
#X connect 4 1 7 0;
#X connect 4 3 1 0;
#X connect 4 4 8 0;
#X connect 4 5 3 0;
#X connect 6 0 11 0;
#X connect 7 0 6 0;
#X connect 8 0 6 2;
#X connect 9 0 2 0;
#X connect 11 0 10 0;
#X connect 12 0 10 0;
#X restore 266 280 pd part-1;
#X obj 21 148 list prepend count;
#X obj 22 169 s l2ork-conductor-broadcast-custom;
#X obj 104 85 list prepend rumble;
#N canvas 694 89 450 300 simple-test 0;
#N canvas 611 14 450 300 part-1 0;
#X obj 103 89 inlet;
#X obj 125 236 outlet;
#X msg 124 183 1;
#X msg 164 183 1;
#X msg 204 183 0;
#X msg 12 160 Whooshing sounds;
#X msg 244 183 1;
#X obj 60 185 tosymbol;
#X obj 58 238 outlet;
#X obj 125 213 pack f f f f f;
#X msg 277 183 750;
#X obj 104 124 t b b b b b b;
#X connect 0 0 11 0;
#X connect 2 0 9 0;
#X connect 3 0 9 1;
#X connect 4 0 9 2;
#X connect 5 0 7 0;
#X connect 6 0 9 3;
#X connect 7 0 8 0;
#X connect 9 0 1 0;
#X connect 10 0 9 4;
#X connect 11 0 5 0;
#X connect 11 1 2 0;
#X connect 11 2 3 0;
#X connect 11 3 4 0;
#X connect 11 4 6 0;
#X connect 11 5 10 0;
#X restore 63 45 pd part-1;
#N canvas 149 14 450 300 part-2 0;
#X obj 136 -7 inlet;
#X obj 93 90 tosymbol;
#X msg 197 87 2;
#X msg 157 87 2;
#X msg 42 64 Quieter whooshing;
#X msg 237 87 0.25;
#X msg 277 87 0.5;
#X obj 161 148 outlet;
#X obj 88 130 outlet;
#X obj 161 120 pack f f f f f;
#X obj 137 28 t b b b b b b;
#X msg 316 87 1500;
#X connect 0 0 10 0;
#X connect 1 0 8 0;
#X connect 2 0 9 1;
#X connect 3 0 9 0;
#X connect 4 0 1 0;
#X connect 5 0 9 2;
#X connect 6 0 9 3;
#X connect 9 0 7 0;
#X connect 10 0 4 0;
#X connect 10 1 3 0;
#X connect 10 2 2 0;
#X connect 10 3 5 0;
#X connect 10 4 6 0;
#X connect 10 5 11 0;
#X connect 11 0 9 4;
#X restore 124 45 pd part-2;
#N canvas 668 33 450 300 part-3 0;
#X obj 153 -43 inlet;
#X obj 154 110 outlet;
#X obj 110 53 tosymbol;
#X msg 214 51 2;
#X msg 59 28 Make it loud!;
#X msg 174 51 5;
#X msg 254 51 1;
#X msg 294 51 1;
#X obj 111 109 outlet;
#X msg 333 52 750;
#X obj 154 76 pack f f f f f;
#X obj 154 -16 t b b b b b b;
#X connect 0 0 11 0;
#X connect 2 0 8 0;
#X connect 3 0 10 1;
#X connect 4 0 2 0;
#X connect 5 0 10 0;
#X connect 6 0 10 2;
#X connect 7 0 10 3;
#X connect 9 0 10 4;
#X connect 10 0 1 0;
#X connect 11 0 4 0;
#X connect 11 1 5 0;
#X connect 11 2 3 0;
#X connect 11 3 6 0;
#X connect 11 4 7 0;
#X connect 11 5 9 0;
#X restore 185 45 pd part-3;
#N canvas 133 87 450 300 part-4 0;
#X obj 162 35 inlet;
#X obj 163 188 outlet;
#X obj 119 131 tosymbol;
#X msg 183 129 1;
#X msg 223 129 1;
#X msg 68 106 Back to whooshing;
#X msg 303 129 1;
#X msg 263 129 0.25;
#X obj 111 175 outlet;
#X msg 335 125 750;
#X obj 163 154 pack f f f f f;
#X obj 163 70 t b b b b b b;
#X connect 0 0 11 0;
#X connect 2 0 8 0;
#X connect 3 0 10 0;
#X connect 4 0 10 1;
#X connect 5 0 2 0;
#X connect 6 0 10 3;
#X connect 7 0 10 2;
#X connect 9 0 10 4;
#X connect 10 0 1 0;
#X connect 11 0 5 0;
#X connect 11 1 3 0;
#X connect 11 2 4 0;
#X connect 11 3 7 0;
#X connect 11 4 6 0;
#X connect 11 5 9 0;
#X restore 246 45 pd part-4;
#N canvas 394 144 450 300 part-5 0;
#X obj 171 10 inlet;
#X obj 172 163 outlet;
#X obj 128 106 tosymbol;
#X msg 192 104 0;
#X msg 234 100 0;
#X msg 271 97 0;
#X msg 312 104 0;
#X msg 77 81 Fade out;
#X obj 126 167 outlet;
#X msg 361 104 750;
#X obj 172 129 pack f f f f f;
#X obj 172 45 t b b b b b b;
#X connect 0 0 11 0;
#X connect 2 0 8 0;
#X connect 3 0 10 0;
#X connect 4 0 10 1;
#X connect 5 0 10 2;
#X connect 6 0 10 3;
#X connect 7 0 2 0;
#X connect 9 0 10 4;
#X connect 10 0 1 0;
#X connect 11 0 7 0;
#X connect 11 1 3 0;
#X connect 11 2 4 0;
#X connect 11 3 5 0;
#X connect 11 4 6 0;
#X connect 11 5 9 0;
#X restore 307 45 pd part-5;
#X obj 58 7 expr if($f1 < 30 \, 1 \, if($f1 < 60 \, 2 \, if($f1 < 90
\, 3 \, if($f1 < 120 \, 4 \, 0))));
#X text 62 104 Simple demo piece.;
#X restore 910 4 pd simple-test;
#N canvas 613 48 504 337 time-to-part-routing 1;
#X obj 201 7 inlet;
#X obj 201 309 outlet;
#X obj 201 288 change;
#X obj 201 52 moses;
#X msg 515 38 5;
#X msg 201 73 1;
#X obj 229 73 moses;
#X msg 515 57 65;
#X msg 229 94 2;
#X obj 259 95 moses;
#X obj 287 116 moses;
#X obj 315 140 moses;
#X obj 343 161 moses;
#X obj 373 183 moses;
#X obj 401 204 moses;
#X obj 460 256 moses;
#X obj 488 277 moses;
#X msg 515 228 1000;
#X text 555 38 Secs of silence;
#X text 555 57 Build Density;
#X text 555 76 Part A fade out;
#X text 555 95 Part B decrease density;
#X text 555 114 part B variance;
#X text 555 133 Part A Build;
#X text 555 152 LOUD AND DENSE;
#X text 555 171 Kill switch and silence;
#X text 555 209 Build Whooshing;
#X text 555 228 Speed up and fade out;
#X msg 259 116 3;
#X msg 287 137 4;
#X msg 315 161 5;
#X msg 343 182 6;
#X msg 373 204 7;
#X msg 401 225 8;
#X text 555 190 Silence;
#X obj 429 226 moses;
#X msg 429 247 9;
#X msg 459 277 10;
#X msg 488 297 11;
#X msg 515 76 85;
#X msg 515 95 105;
#X msg 515 114 145;
#X msg 515 133 175;
#X msg 515 152 195;
#X msg 515 171 200;
#X msg 515 190 206;
#X msg 515 209 225;
#X obj 407 -6 loadbang;
#X obj 407 14 bng 15 250 50 0 empty empty empty 17 7 0 10 -262144 -1
-1;
#X connect 0 0 3 0;
#X connect 2 0 1 0;
#X connect 3 0 5 0;
#X connect 3 1 6 0;
#X connect 4 0 3 1;
#X connect 5 0 2 0;
#X connect 6 0 8 0;
#X connect 6 1 9 0;
#X connect 7 0 6 1;
#X connect 8 0 2 0;
#X connect 9 0 28 0;
#X connect 9 1 10 0;
#X connect 10 0 29 0;
#X connect 10 1 11 0;
#X connect 11 0 30 0;
#X connect 11 1 12 0;
#X connect 12 0 31 0;
#X connect 12 1 13 0;
#X connect 13 0 32 0;
#X connect 13 1 14 0;
#X connect 14 0 33 0;
#X connect 14 1 35 0;
#X connect 15 0 37 0;
#X connect 15 1 16 0;
#X connect 16 0 38 0;
#X connect 17 0 16 1;
#X connect 28 0 2 0;
#X connect 29 0 2 0;
#X connect 30 0 2 0;
#X connect 31 0 2 0;
#X connect 32 0 2 0;
#X connect 33 0 2 0;
#X connect 35 0 36 0;
#X connect 35 1 15 0;
#X connect 36 0 2 0;
#X connect 37 0 2 0;
#X connect 38 0 2 0;
#X connect 39 0 9 1;
#X connect 40 0 10 1;
#X connect 41 0 11 1;
#X connect 42 0 12 1;
#X connect 43 0 13 1;
#X connect 44 0 14 1;
#X connect 45 0 35 1;
#X connect 46 0 15 1;
#X connect 47 0 48 0;
#X connect 48 0 39 0;
#X connect 48 0 7 0;
#X connect 48 0 4 0;
#X connect 48 0 40 0;
#X connect 48 0 41 0;
#X connect 48 0 42 0;
#X connect 48 0 46 0;
#X connect 48 0 44 0;
#X connect 48 0 43 0;
#X connect 48 0 45 0;
#X connect 48 0 17 0;
#X restore 266 13 pd time-to-part-routing;
#N canvas 99 43 450 300 part-2 0;
#X obj 93 9 inlet;
#X msg 147 103 0;
#X obj 50 105 tosymbol;
#X obj 94 44 t b b b b b b;
#X obj 115 133 pack f f f f;
#X obj 48 249 s l2ork-conductor-broadcast-custom;
#X obj 220 166 list prepend all part;
#X obj 47 165 list prepend all text;
#X msg 2 80 Slowly build;
#X msg 182 103 0.75;
#X text 172 6 60 sec build with laas;
#X msg 222 103 50000;
#X msg 114 103 2;
#X connect 0 0 3 0;
#X connect 1 0 4 1;
#X connect 2 0 7 0;
#X connect 3 0 8 0;
#X connect 3 1 12 0;
#X connect 3 3 1 0;
#X connect 3 4 9 0;
#X connect 3 5 11 0;
#X connect 4 0 6 0;
#X connect 6 0 5 0;
#X connect 7 0 5 0;
#X connect 8 0 2 0;
#X connect 9 0 4 2;
#X connect 11 0 4 3;
#X connect 12 0 4 0;
#X restore 281 259 pd part-2;
#N canvas 47 14 394 300 part-3 0;
#X obj 93 9 inlet;
#X msg 157 103 0;
#X obj 50 105 tosymbol;
#X obj 125 133 pack f f f f;
#X msg 124 103 0;
#X msg 197 103 0;
#X obj 88 249 s l2ork-conductor-broadcast-custom;
#X obj 94 44 t b b b b b;
#X text 172 6 Part A fade out;
#X msg 1 80 Fade out;
#X obj 230 176 list prepend a part;
#X obj 47 175 list prepend a text;
#X msg 230 100 7000;
#X connect 0 0 7 0;
#X connect 1 0 3 1;
#X connect 2 0 11 0;
#X connect 3 0 10 0;
#X connect 4 0 3 0;
#X connect 5 0 3 2;
#X connect 7 0 9 0;
#X connect 7 1 4 0;
#X connect 7 2 1 0;
#X connect 7 3 5 0;
#X connect 7 4 12 0;
#X connect 9 0 2 0;
#X connect 10 0 6 0;
#X connect 11 0 6 0;
#X connect 12 0 3 3;
#X restore 297 239 pd part-3;
#N canvas 163 226 810 300 part-4 0;
#X obj 93 9 inlet;
#X msg 147 103 0;
#X obj 50 105 tosymbol;
#X obj 115 133 pack f f f f;
#X msg 114 103 0;
#X msg 187 103 0;
#X msg 2 80 Silence;
#X obj 48 249 s l2ork-conductor-broadcast-custom;
#X obj 94 44 t b b b b b;
#X msg 568 107 0;
#X obj 471 109 tosymbol;
#X obj 536 137 pack f f f f;
#X obj 469 253 s l2ork-conductor-broadcast-custom;
#X obj 515 48 t b b b b b;
#X text 172 6 Part A silence;
#X text 593 10 Part B Decrease Density;
#X msg 220 103 0;
#X msg 423 84 Decrease density;
#X msg 608 107 0.5;
#X obj 641 170 list prepend b part;
#X obj 468 168 list prepend b text;
#X obj 220 168 list prepend a part;
#X obj 47 165 list prepend a text;
#X msg 641 107 8000;
#X msg 535 107 2;
#X connect 0 0 8 0;
#X connect 0 0 13 0;
#X connect 1 0 3 1;
#X connect 2 0 22 0;
#X connect 3 0 21 0;
#X connect 4 0 3 0;
#X connect 5 0 3 2;
#X connect 6 0 2 0;
#X connect 8 0 6 0;
#X connect 8 1 4 0;
#X connect 8 2 1 0;
#X connect 8 3 5 0;
#X connect 8 4 16 0;
#X connect 9 0 11 1;
#X connect 10 0 20 0;
#X connect 11 0 19 0;
#X connect 13 0 17 0;
#X connect 13 1 24 0;
#X connect 13 2 9 0;
#X connect 13 3 18 0;
#X connect 13 4 23 0;
#X connect 16 0 3 3;
#X connect 17 0 10 0;
#X connect 18 0 11 2;
#X connect 19 0 12 0;
#X connect 20 0 12 0;
#X connect 21 0 7 0;
#X connect 22 0 7 0;
#X connect 23 0 11 3;
#X connect 24 0 11 0;
#X restore 312 220 pd part-4;
#N canvas 139 29 423 300 part-5 0;
#X obj 93 9 inlet;
#X obj 50 105 tosymbol;
#X obj 94 44 t b b b b b b;
#X obj 115 133 pack f f f f;
#X obj 48 249 s l2ork-conductor-broadcast-custom;
#X text 172 6 Part B Variance;
#X obj 220 166 list prepend b part;
#X obj 48 165 list prepend b text;
#X msg 2 80 Increase Variance;
#X msg 188 103 0.5;
#X msg 147 103 0.75;
#X msg 220 103 17000;
#X msg 114 103 2;
#X connect 0 0 2 0;
#X connect 1 0 7 0;
#X connect 2 0 8 0;
#X connect 2 1 12 0;
#X connect 2 3 10 0;
#X connect 2 4 9 0;
#X connect 2 5 11 0;
#X connect 3 0 6 0;
#X connect 6 0 4 0;
#X connect 7 0 4 0;
#X connect 8 0 1 0;
#X connect 9 0 3 2;
#X connect 10 0 3 1;
#X connect 11 0 3 3;
#X connect 12 0 3 0;
#X restore 328 199 pd part-5;
#N canvas 102 264 745 300 part-6 0;
#X obj 93 9 inlet;
#X obj 50 105 tosymbol;
#X obj 115 133 pack f f f f;
#X obj 48 249 s l2ork-conductor-broadcast-custom;
#X obj 94 44 t b b b b b;
#X obj 416 113 tosymbol;
#X obj 481 141 pack f f f f;
#X obj 414 257 s l2ork-conductor-broadcast-custom;
#X obj 460 52 t b b b b b;
#X text 172 6 Part A lists;
#X msg 2 80 Slowly build;
#X obj 47 165 list prepend a text;
#X obj 220 166 list prepend a part;
#X obj 413 173 list prepend b text;
#X obj 586 174 list prepend b part;
#X msg 513 111 0.75;
#X msg 553 111 0.5;
#X msg 368 88 Hold steady;
#X text 538 14 Same as prev;
#X msg 586 111 0;
#X msg 147 103 0.75;
#X msg 187 103 0.5;
#X msg 220 103 17000;
#X msg 114 103 1;
#X msg 480 111 2;
#X connect 0 0 4 0;
#X connect 0 0 8 0;
#X connect 1 0 11 0;
#X connect 2 0 12 0;
#X connect 4 0 10 0;
#X connect 4 1 23 0;
#X connect 4 2 20 0;
#X connect 4 3 21 0;
#X connect 4 4 22 0;
#X connect 5 0 13 0;
#X connect 6 0 14 0;
#X connect 8 0 17 0;
#X connect 8 1 24 0;
#X connect 8 2 15 0;
#X connect 8 3 16 0;
#X connect 8 4 19 0;
#X connect 10 0 1 0;
#X connect 11 0 3 0;
#X connect 12 0 3 0;
#X connect 13 0 7 0;
#X connect 14 0 7 0;
#X connect 15 0 6 1;
#X connect 16 0 6 2;
#X connect 17 0 5 0;
#X connect 19 0 6 3;
#X connect 20 0 2 1;
#X connect 21 0 2 2;
#X connect 22 0 2 3;
#X connect 23 0 2 0;
#X connect 24 0 6 0;
#X restore 343 179 pd part-6;
#X text -36 195 Options for Messages to effect performer GUI(Must
be a list)- text- stage- variance- density- duration;
#N canvas 252 284 719 300 part-7 0;
#X obj 93 9 inlet;
#X obj 50 105 tosymbol;
#X obj 94 44 t b b b b b b;
#X obj 115 133 pack f f f f;
#X obj 48 249 s l2ork-conductor-broadcast-custom;
#X obj 220 166 list prepend all part;
#X obj 47 165 list prepend all text;
#X msg 2 80 Loud and Crazy;
#X msg 187 103 1;
#X msg 147 103 1;
#X text 172 6 Bring it up to loud and crazy and sustain;
#X msg 219 105 7000;
#X msg 114 103 7;
#X connect 0 0 2 0;
#X connect 1 0 6 0;
#X connect 2 0 7 0;
#X connect 2 1 12 0;
#X connect 2 3 9 0;
#X connect 2 4 8 0;
#X connect 2 5 11 0;
#X connect 3 0 5 0;
#X connect 5 0 4 0;
#X connect 6 0 4 0;
#X connect 7 0 1 0;
#X connect 8 0 3 2;
#X connect 9 0 3 1;
#X connect 11 0 3 3;
#X connect 12 0 3 0;
#X restore 359 157 pd part-7;
#N canvas 92 170 450 300 part-8 0;
#X obj 93 9 inlet;
#X obj 50 105 tosymbol;
#X obj 94 44 t b b b b b b;
#X obj 115 133 pack f f f f;
#X obj 48 249 s l2ork-conductor-broadcast-custom;
#X obj 220 166 list prepend all part;
#X obj 47 165 list prepend all text;
#X msg 157 103 1;
#X msg 197 103 1;
#X msg 230 103 0;
#X text 172 6 kill switch prompt;
#X msg 124 103 7;
#X msg 2 79 Kill switch at 200;
#X connect 0 0 2 0;
#X connect 1 0 6 0;
#X connect 2 0 12 0;
#X connect 2 1 11 0;
#X connect 2 3 7 0;
#X connect 2 4 8 0;
#X connect 2 5 9 0;
#X connect 3 0 5 0;
#X connect 5 0 4 0;
#X connect 6 0 4 0;
#X connect 7 0 3 1;
#X connect 8 0 3 2;
#X connect 9 0 3 3;
#X connect 11 0 3 0;
#X connect 12 0 1 0;
#X restore 374 137 pd part-8;
#N canvas 320 15 450 300 part-9 0;
#X obj 93 9 inlet;
#X msg 147 103 0;
#X obj 50 105 tosymbol;
#X obj 94 44 t b b b b b b;
#X obj 115 133 pack f f f f;
#X msg 114 103 0;
#X msg 187 103 0;
#X obj 48 249 s l2ork-conductor-broadcast-custom;
#X obj 220 166 list prepend all part;
#X obj 47 165 list prepend all text;
#X msg 220 103 100;
#X msg 2 80 Silence;
#X connect 0 0 3 0;
#X connect 1 0 4 1;
#X connect 2 0 9 0;
#X connect 3 0 11 0;
#X connect 3 1 5 0;
#X connect 3 3 1 0;
#X connect 3 4 6 0;
#X connect 3 5 10 0;
#X connect 4 0 8 0;
#X connect 5 0 4 0;
#X connect 6 0 4 2;
#X connect 8 0 7 0;
#X connect 9 0 7 0;
#X connect 10 0 4 3;
#X connect 11 0 2 0;
#X restore 389 116 pd part-9;
#N canvas 169 72 450 300 part-10 0;
#X obj 93 9 inlet;
#X obj 50 105 tosymbol;
#X obj 94 44 t b b b b b b;
#X text 172 6 5 secs of silence;
#X obj 115 133 pack f f f f;
#X obj 48 249 s l2ork-conductor-broadcast-custom;
#X obj 220 166 list prepend all part;
#X obj 47 165 list prepend all text;
#X msg 2 80 Build whooshing;
#X msg 147 103 0.25;
#X msg 187 103 1;
#X msg 220 103 17000;
#X msg 114 103 8;
#X connect 0 0 2 0;
#X connect 1 0 7 0;
#X connect 2 0 8 0;
#X connect 2 1 12 0;
#X connect 2 3 9 0;
#X connect 2 4 10 0;
#X connect 2 5 11 0;
#X connect 4 0 6 0;
#X connect 6 0 5 0;
#X connect 7 0 5 0;
#X connect 8 0 1 0;
#X connect 9 0 4 1;
#X connect 10 0 4 2;
#X connect 11 0 4 3;
#X connect 12 0 4 0;
#X restore 405 95 pd part-10;
#X obj 266 36 route 1 2 3 4 5 6 7 8 9 10 11;
#N canvas 336 14 450 300 part-11 0;
#X obj 93 9 inlet;
#X obj 50 105 tosymbol;
#X obj 94 44 t b b b b b b;
#X text 172 6 5 secs of silence;
#X obj 115 133 pack f f f f;
#X msg 114 103 0;
#X obj 48 249 s l2ork-conductor-broadcast-custom;
#X obj 220 166 list prepend all part;
#X obj 47 165 list prepend all text;
#X msg 187 103 0;
#X msg 2 80 Speed up and fade out;
#X msg 220 103 10000;
#X msg 149 103 0;
#X connect 0 0 2 0;
#X connect 1 0 8 0;
#X connect 2 0 10 0;
#X connect 2 1 5 0;
#X connect 2 3 12 0;
#X connect 2 4 9 0;
#X connect 2 5 11 0;
#X connect 4 0 7 0;
#X connect 5 0 4 0;
#X connect 7 0 6 0;
#X connect 8 0 6 0;
#X connect 9 0 4 2;
#X connect 10 0 1 0;
#X connect 11 0 4 3;
#X connect 12 0 4 1;
#X restore 421 74 pd part-11;
#X connect 1 0 11 0;
#X connect 2 0 4 0;
#X connect 2 0 6 0;
#X connect 3 0 5 0;
#X connect 3 0 13 0;
#X connect 4 0 10 0;
#X connect 4 1 15 0;
#X connect 5 0 7 0;
#X connect 6 0 3 0;
#X connect 8 0 17 0;
#X connect 9 0 3 0;
#X connect 10 0 9 0;
#X connect 11 0 2 0;
#X connect 13 0 14 0;
#X connect 15 0 14 0;
#X connect 17 0 28 0;
#X connect 28 0 12 0;
#X connect 28 1 18 0;
#X connect 28 2 19 0;
#X connect 28 3 20 0;
#X connect 28 4 21 0;
#X connect 28 5 22 0;
#X connect 28 6 24 0;
#X connect 28 7 25 0;
#X connect 28 8 26 0;
#X connect 28 9 27 0;
#X connect 28 10 29 0;
