#N canvas 212 125 450 300 10;
#X obj 146 100 line~ 0;
#X obj 74 102 *~;
#X msg 192 79 1 100;
#X obj 74 60 inlet~;
#X obj 155 1 inlet;
#X obj 74 144 outlet~;
#X obj 154 20 tgl 15 0 empty empty empty 17 7 0 10 -262144 -1 -1 1
1;
#X obj 154 42 route 0;
#X msg 143 79 0 500;
#X connect 0 0 1 1;
#X connect 1 0 5 0;
#X connect 2 0 0 0;
#X connect 3 0 1 0;
#X connect 4 0 6 0;
#X connect 6 0 7 0;
#X connect 7 0 8 0;
#X connect 7 1 2 0;
#X connect 8 0 0 0;
