#N canvas 47 14 1126 690 10;
#X obj 577 372 tabwrite karplus_strong_buffer;
#X obj 610 211 cup;
#X obj 609 161 tgl 15 0 empty empty empty 17 7 0 10 -262144 -1 -1 0
1000;
#X msg 688 174 0;
#X floatatom 657 212 5 0 0 0 - - -, f 5;
#X floatatom 664 340 5 0 0 0 - - -, f 5;
#X obj 574 282 sel 1;
#X text 602 128 Populate Buffer;
#X text 841 332 Run Algorithm;
#X obj 846 410 tabread karplus_strong_buffer;
#X floatatom 845 389 5 0 0 0 - - -, f 5;
#X text 1033 411 Initialize;
#X obj 875 481 float;
#X obj 1182 462 tgl 15 0 empty empty empty 17 7 0 10 -262144 -1 -1
0 1;
#X obj 966 449 bng 15 250 50 0 empty empty empty 17 7 0 10 -262144
-1 -1;
#X obj 1182 529 cup;
#X text 1025 481 starting index;
#X text 1183 439 Loop;
#X obj 1182 576 tabread karplus_strong_buffer;
#X obj 1183 602 +;
#X text 1216 612 Average Current and last value;
#X obj 882 447 bng 15 250 50 0 empty empty empty 17 7 0 10 -262144
-1 -1;
#X text 667 482 only necessary for the first step;
#X obj 1217 678 tabwrite karplus_strong_buffer;
#X obj 1399 555 - 1;
#X text 1427 555 Write to the previous index;
#X obj 574 304 randomF 2;
#X obj 575 325 - 1;
#X obj 845 368 bng 15 250 50 0 empty empty empty 17 7 0 10 -262144
-1 -1;
#X floatatom 1148 188 5 0 0 0 - - -, f 5;
#X text 1183 191 table size;
#X obj 573 239 expr if($f1 < $f2 \, 1 \, 0);
#X obj 844 143 bng 15 250 50 0 empty empty empty 17 7 0 10 -262144
-1 -1;
#X text 866 141 run;
#X obj 1182 554 moses;
#X obj 1182 483 metro 1;
#X obj 1278 448 tabwrite karplus_strong_buffer;
#X obj 1264 318 bng 15 250 50 0 empty empty empty 17 7 0 10 -262144
-1 -1;
#X obj 1366 371 +;
#X obj 1334 349 * -1;
#X obj 1348 414 bng 15 250 50 0 empty empty empty 17 7 0 10 -262144
-1 -1;
#X msg 990 480 1;
#X obj 1292 361 + 1;
#X obj 1292 333 int;
#X msg 1328 299 0;
#X text 1358 301 current iteration;
#X obj 1275 504 bng 15 250 50 0 empty empty empty 17 7 0 10 -262144
-1 -1;
#X text 1298 504 debug \, run one loop;
#X msg 1280 427 0;
#X floatatom 1429 395 5 0 0 0 - - -, f 5;
#X floatatom 888 516 5 0 0 0 - - -, f 5;
#X floatatom 1131 696 5 0 0 0 - - -, f 5;
#X text 1175 699 current value;
#X floatatom 1133 721 5 0 0 0 - - -, f 5;
#X text 1177 722 sum of current and last;
#X floatatom 1132 748 5 0 0 0 - - -, f 5;
#X text 1181 749 average;
#X text 912 482 last value;
#X obj 609 184 metro 1;
#X obj 275 453 tabplay~ karplus_strong_buffer;
#X obj 321 614 dac~;
#X obj 279 573 *~;
#X obj 287 502 mtof;
#X floatatom 291 475 5 0 0 0 - - -, f 5;
#X obj 287 528 phasor~;
#X obj 290 97 @pd_extra/K12/wii_connect 0;
#X obj 185 199 @pd_extra/K12/wii_buttons 0;
#X obj 1149 126 loadbang;
#X msg 1160 158 1000;
#X obj 941 187 table karplus_strong_buffer 1000;
#X obj 191 393 sel 1;
#X obj 289 200 @pd_extra/K12/wii_speed_xry 0;
#X obj 295 333 +;
#X obj 297 303 * -15;
#X obj 1203 651 /;
#X floatatom 481 525 5 0 0 0 - - -, f 5;
#X obj 390 524 +;
#X obj 388 200 @pd_extra/K12/wii_nunchuk_stick 0;
#X obj 353 495 / 4;
#X obj 184 505 2;
#X obj 191 471 0;
#X floatatom 336 300 5 0 0 0 - - -, f 5;
#X floatatom 489 342 5 0 0 0 - - -, f 5;
#X connect 1 0 0 1;
#X connect 1 0 4 0;
#X connect 1 0 31 0;
#X connect 2 0 58 0;
#X connect 3 0 1 0;
#X connect 6 0 26 0;
#X connect 6 1 2 0;
#X connect 6 1 3 0;
#X connect 6 1 28 0;
#X connect 9 0 14 0;
#X connect 9 0 12 0;
#X connect 10 0 9 0;
#X connect 12 0 50 0;
#X connect 12 0 19 1;
#X connect 13 0 35 0;
#X connect 14 0 41 0;
#X connect 15 0 24 0;
#X connect 15 0 34 0;
#X connect 18 0 51 0;
#X connect 18 0 12 1;
#X connect 18 0 19 0;
#X connect 19 0 53 0;
#X connect 19 0 21 0;
#X connect 19 0 74 0;
#X connect 21 0 12 0;
#X connect 24 0 23 1;
#X connect 26 0 27 0;
#X connect 27 0 5 0;
#X connect 27 0 0 0;
#X connect 28 0 10 0;
#X connect 29 0 31 1;
#X connect 29 0 2 0;
#X connect 29 0 38 1;
#X connect 29 0 34 1;
#X connect 31 0 6 0;
#X connect 32 0 29 0;
#X connect 32 0 3 0;
#X connect 32 0 44 0;
#X connect 34 0 18 0;
#X connect 34 1 37 0;
#X connect 35 0 15 0;
#X connect 35 0 59 0;
#X connect 37 0 43 0;
#X connect 38 0 36 1;
#X connect 38 0 40 0;
#X connect 38 0 49 0;
#X connect 38 0 34 1;
#X connect 39 0 38 0;
#X connect 40 0 28 0;
#X connect 40 0 48 0;
#X connect 41 0 15 0;
#X connect 41 0 13 0;
#X connect 42 0 43 1;
#X connect 43 0 42 0;
#X connect 43 0 39 0;
#X connect 44 0 43 1;
#X connect 46 0 15 0;
#X connect 48 0 36 0;
#X connect 58 0 1 0;
#X connect 59 0 61 0;
#X connect 61 0 60 0;
#X connect 61 0 60 1;
#X connect 62 0 64 0;
#X connect 63 0 62 0;
#X connect 63 0 72 1;
#X connect 64 0 61 1;
#X connect 65 0 66 0;
#X connect 65 0 71 0;
#X connect 66 0 70 0;
#X connect 67 0 68 0;
#X connect 68 0 29 0;
#X connect 70 0 32 0;
#X connect 70 0 79 0;
#X connect 70 0 80 0;
#X connect 70 1 2 0;
#X connect 70 1 13 0;
#X connect 71 0 73 0;
#X connect 71 0 81 0;
#X connect 72 0 63 0;
#X connect 73 0 72 0;
#X connect 74 0 23 0;
#X connect 74 0 55 0;
#X connect 75 0 74 1;
#X connect 75 0 76 1;
#X connect 76 0 75 0;
#X connect 77 1 78 0;
#X connect 77 1 82 0;
#X connect 78 0 76 0;
