#N canvas 57 24 1311 718 10;
#X obj 45 84 inlet~;
#X obj 209 58 inlet~;
#X obj 35 105 tabwrite~ loopArray0;
#X obj 205 105 tabwrite~ loopArray1;
#X obj 36 -65 inlet;
#X obj 36 55 route 0 1 2 3;
#X obj 640 346 phasor~;
#X obj 570 240 r arraySize;
#X obj 707 240 r arraySize;
#X obj 640 377 *~;
#X obj 662 408 send~ position;
#X obj 641 431 tabread4~ loopArray0;
#X obj 787 430 tabread4~ loopArray1;
#X obj 570 261 expr 48000 / $f1;
#X obj 642 502 outlet~;
#X obj 784 499 outlet~;
#X text 200 126 Array Size;
#X obj 199 168 s arraySize;
#X obj 179 196 tgl 15 0 empty empty empty 17 7 0 10 -262144 -1 -1 1
1;
#X obj 178 243 snapshot~;
#X obj 179 217 metro 50;
#X obj 179 284 /;
#X obj 194 264 r arraySize;
#X obj 103 222 r~ position;
#X obj 138 127 loadbang;
#X msg 200 146 192000;
#X obj 279 232 hsl 195 12 0 1 0 0 empty empty empty -2 -8 0 10 -262144
-1 -1 13775 1;
#X obj 279 292 hsl 195 12 0 1 0 0 empty empty empty -2 -8 0 10 -262144
-1 -1 8930 1;
#X obj 795 403 send~ position2;
#X obj 43 320 r~ position2;
#X obj 120 337 snapshot~;
#X obj 180 355 /;
#X obj 772 345 phasor~;
#X obj 786 382 *~;
#X obj 797 114 vsl 15 128 -0.5 0.5 0 0 empty empty empty 0 -9 0 10
-262144 -1 -1 9525 1;
#X obj 799 -60 r nc-accX-set;
#X floatatom 797 -20 5 0 0 0 - - -, f 5;
#X obj 711 453 r~ position;
#X obj 797 -1 expr ($f1/2);
#X obj 57 6 float;
#X obj 89 -73 inlet;
#X obj 688 -62 r wii-roll-set;
#X floatatom 687 18 5 0 0 0 - - -, f 5;
#X obj 687 40 expr ($f1/4);
#X obj 687 112 vsl 15 128 -0.5 0.5 0 0 empty empty empty 0 -9 0 10
-262144 -1 -1 9525 1;
#X obj 490 387 s playback_direction1;
#X obj 901 368 s playback_direction2;
#N canvas 568 285 566 483 fade-in-out 0;
#X obj 317 302 line~;
#X obj 237 87 snapshot~;
#X obj 236 64 metro 50;
#X obj 236 26 loadbang;
#X obj 236 45 tgl 15 0 empty empty empty 17 7 0 10 -262144 -1 -1 1
1;
#X obj 237 220 route 1 -1;
#X obj 242 137 change;
#X obj 239 117 expr if($f1 < 24000 \, 1 \, if($f1 >= 168000 \, -1 \,
0));
#X obj 343 4 inlet~;
#X obj 297 333 outlet~;
#X obj 233 279 inlet~;
#X obj 262 310 *~;
#X obj 321 138 r playback_direction1;
#X obj 321 160 expr if($f1 >= 0 \, 1 \, -1);
#X obj 278 189 *;
#X obj 429 24 r arraySize;
#X obj 429 46 expr 48000 / $f1;
#X msg 317 252 1;
#X msg 366 252 0;
#X obj 317 277 pack f f;
#X obj 381 278 pack f f;
#X obj 405 249 expr 500*($f2/$f1);
#X obj 432 225 abs;
#X floatatom 452 72 5 0 0 0 - - -, f 5;
#X connect 0 0 11 1;
#X connect 1 0 7 0;
#X connect 2 0 1 0;
#X connect 3 0 4 0;
#X connect 4 0 2 0;
#X connect 5 0 17 0;
#X connect 5 1 18 0;
#X connect 6 0 14 0;
#X connect 7 0 6 0;
#X connect 8 0 1 0;
#X connect 10 0 11 0;
#X connect 11 0 9 0;
#X connect 12 0 13 0;
#X connect 12 0 22 0;
#X connect 13 0 14 1;
#X connect 14 0 5 0;
#X connect 15 0 16 0;
#X connect 16 0 23 0;
#X connect 17 0 19 0;
#X connect 18 0 20 0;
#X connect 19 0 0 0;
#X connect 20 0 0 0;
#X connect 21 0 19 1;
#X connect 21 0 20 1;
#X connect 22 0 21 0;
#X connect 23 0 21 1;
#X restore 642 481 pd fade-in-out;
#N canvas 414 164 450 300 fade-in-out 0;
#X obj 478 432 line~;
#X obj 398 217 snapshot~;
#X obj 397 194 metro 50;
#X obj 397 156 loadbang;
#X obj 397 175 tgl 15 0 empty empty empty 17 7 0 10 -262144 -1 -1 1
1;
#X obj 398 350 route 1 -1;
#X obj 403 267 change;
#X obj 400 247 expr if($f1 < 24000 \, 1 \, if($f1 >= 168000 \, -1 \,
0));
#X obj 504 134 inlet~;
#X obj 458 463 outlet~;
#X obj 394 409 inlet~;
#X obj 423 440 *~;
#X obj 482 290 expr if($f1 >= 0 \, 1 \, -1);
#X obj 439 319 *;
#X obj 590 154 r arraySize;
#X obj 590 176 expr 48000 / $f1;
#X msg 478 382 1;
#X msg 527 382 0;
#X obj 478 407 pack f f;
#X obj 542 408 pack f f;
#X obj 566 379 expr 500*($f2/$f1);
#X obj 593 355 abs;
#X floatatom 613 202 5 0 0 0 - - -, f 5;
#X obj 482 268 r playback_direction2;
#X connect 0 0 11 1;
#X connect 1 0 7 0;
#X connect 2 0 1 0;
#X connect 3 0 4 0;
#X connect 4 0 2 0;
#X connect 5 0 16 0;
#X connect 5 1 17 0;
#X connect 6 0 13 0;
#X connect 7 0 6 0;
#X connect 8 0 1 0;
#X connect 10 0 11 0;
#X connect 11 0 9 0;
#X connect 12 0 13 1;
#X connect 13 0 5 0;
#X connect 14 0 15 0;
#X connect 15 0 22 0;
#X connect 16 0 18 0;
#X connect 17 0 19 0;
#X connect 18 0 0 0;
#X connect 19 0 0 0;
#X connect 20 0 18 1;
#X connect 20 0 19 1;
#X connect 21 0 20 0;
#X connect 22 0 20 1;
#X connect 23 0 12 0;
#X connect 23 0 21 0;
#X restore 783 473 pd fade-in-out;
#X obj 864 452 r~ position2;
#X obj 688 -40 * -1;
#X obj 513 -57 r wii-btn02-set;
#X obj 512 24 tgl 15 0 empty empty empty 17 7 0 10 -262144 -1 -1 1
1;
#X obj 512 62 float;
#X obj 455 4 loadbang;
#X obj 688 -1 spigot;
#X obj 512 3 route 4 0;
#X obj 688 59 average 20;
#X obj 686 81 change;
#X obj 793 46 change;
#X obj 793 25 average 20;
#X floatatom 943 -39 5 0 0 0 - - -, f 5;
#X obj 945 43 tgl 15 0 empty empty empty 17 7 0 10 -262144 -1 -1 1
1;
#X obj 945 82 float;
#X obj 1015 26 loadbang;
#X obj 942 -58 r nunchuk-btn-set;
#X obj 944 22 route 1 0;
#X obj 943 -20 expr if($f1 == 1 \, 1 \, 0);
#X obj 797 -40 spigot;
#X obj 945 61 metro 25;
#X obj 512 43 metro 25;
#X obj 513 -37 expr if($f1 == 4 \, 4 \, 0);
#X obj 512 -17 change;
#X obj 943 1 change;
#X obj 165 503 s position-track-2;
#X obj 19 503 s position-track-1;
#X text 285 503 Sent to pd gui object in main patch;
#X obj 1040 189 expr $f1/2;
#X obj 1039 218 average 20;
#X obj 1040 242 change;
#X obj 1041 268 s track-2-acceleration;
#X obj 891 229 average 20;
#X obj 889 251 change;
#X obj 891 210 expr ($f1/-4);
#X obj 889 271 s track-1-acceleration;
#X connect 0 0 2 0;
#X connect 1 0 3 0;
#X connect 4 0 39 0;
#X connect 5 0 2 0;
#X connect 5 1 3 0;
#X connect 6 0 9 0;
#X connect 7 0 13 0;
#X connect 8 0 9 1;
#X connect 8 0 33 1;
#X connect 9 0 10 0;
#X connect 9 0 11 0;
#X connect 11 0 47 0;
#X connect 12 0 48 0;
#X connect 13 0 6 0;
#X connect 13 0 32 0;
#X connect 13 0 53 1;
#X connect 13 0 63 1;
#X connect 18 0 20 0;
#X connect 19 0 21 0;
#X connect 20 0 19 0;
#X connect 20 0 30 0;
#X connect 21 0 26 0;
#X connect 21 0 75 0;
#X connect 22 0 21 1;
#X connect 22 0 31 1;
#X connect 23 0 19 0;
#X connect 24 0 18 0;
#X connect 24 0 25 0;
#X connect 25 0 17 0;
#X connect 29 0 30 0;
#X connect 30 0 31 0;
#X connect 31 0 27 0;
#X connect 31 0 74 0;
#X connect 32 0 33 0;
#X connect 33 0 28 0;
#X connect 33 0 12 0;
#X connect 34 0 32 0;
#X connect 34 0 46 0;
#X connect 35 0 68 0;
#X connect 35 0 77 0;
#X connect 36 0 38 0;
#X connect 37 0 47 1;
#X connect 38 0 60 0;
#X connect 39 0 5 0;
#X connect 40 0 39 1;
#X connect 41 0 50 0;
#X connect 41 0 83 0;
#X connect 42 0 43 0;
#X connect 43 0 57 0;
#X connect 44 0 6 0;
#X connect 44 0 45 0;
#X connect 47 0 14 0;
#X connect 48 0 15 0;
#X connect 49 0 48 1;
#X connect 50 0 55 0;
#X connect 51 0 71 0;
#X connect 52 0 70 0;
#X connect 53 0 57 0;
#X connect 54 0 52 0;
#X connect 55 0 42 0;
#X connect 56 0 52 0;
#X connect 56 1 52 0;
#X connect 57 0 58 0;
#X connect 58 0 44 0;
#X connect 59 0 34 0;
#X connect 60 0 59 0;
#X connect 61 0 67 0;
#X connect 62 0 69 0;
#X connect 63 0 60 0;
#X connect 64 0 62 0;
#X connect 65 0 61 0;
#X connect 66 0 62 0;
#X connect 66 1 62 0;
#X connect 67 0 73 0;
#X connect 67 0 68 1;
#X connect 68 0 36 0;
#X connect 69 0 63 0;
#X connect 70 0 53 0;
#X connect 71 0 55 1;
#X connect 71 0 72 0;
#X connect 72 0 56 0;
#X connect 73 0 66 0;
#X connect 77 0 78 0;
#X connect 78 0 79 0;
#X connect 79 0 80 0;
#X connect 81 0 82 0;
#X connect 82 0 84 0;
#X connect 83 0 81 0;
#X coords 0 -1 1 1 211 145 1 273 164;
