#N canvas 57 78 1311 690 10;
#X obj 256 -54 vsl 53 241 0 1 0 0 empty empty empty 0 -9 0 10 -262144
-1 -1 11069 1;
#X obj 373 329 outlet~;
#X obj 251 -111 inlet~;
#X text 104 94 Current Track;
#X obj 37 -54 looper;
#N canvas 664 251 450 300 nc-yaxis 0;
#X obj 11 92 average 10;
#X obj 11 113 change;
#X floatatom 11 134 5 0 0 0 - - -, f 5;
#X obj 11 9 r nc-accY-set;
#X obj 11 154 outlet;
#X obj 11 71 expr (($f1*-1)+1)/2;
#X obj 193 32 r nunchuk-btn-set;
#X obj 202 144 tgl 15 0 empty empty empty 17 7 0 10 -262144 -1 -1 1
1;
#X obj 194 93 route 1 0;
#X obj 11 30 spigot;
#X floatatom 11 51 5 0 0 0 - - -, f 5;
#X obj 194 52 expr if($f1 == 1 \, 1 \, 0);
#X obj 194 72 change;
#X obj 270 122 loadbang;
#X text 192 10 Holding Z stops sound modification;
#X connect 0 0 1 0;
#X connect 1 0 2 0;
#X connect 2 0 4 0;
#X connect 3 0 9 0;
#X connect 5 0 0 0;
#X connect 6 0 11 0;
#X connect 7 0 9 1;
#X connect 8 0 7 0;
#X connect 8 1 7 0;
#X connect 9 0 10 0;
#X connect 10 0 5 0;
#X connect 11 0 12 0;
#X connect 12 0 8 0;
#X connect 13 0 7 0;
#X restore 332 -69 pd nc-yaxis;
#N canvas 354 104 450 300 wii_buttons-a-b 0;
#X obj 13 85 r wii-btn02-set;
#X obj 13 110 route 4 8;
#X obj 4 139 outlet;
#X obj 56 141 outlet;
#X connect 0 0 1 0;
#X connect 1 0 2 0;
#X connect 1 1 3 0;
#X restore -69 -112 pd wii_buttons-a-b;
#N canvas 698 162 450 300 wii_buttons-up-down-left-right 0;
#X msg 36 106 0;
#X msg 64 106 1;
#X msg 92 106 2;
#X msg 120 106 3;
#X obj 37 19 r wii-btn01-set;
#X obj 36 77 sel 1 2 4 8;
#X text 111 39 1 = left2 = right4 = down8 = up;
#X obj 35 132 outlet;
#X connect 0 0 7 0;
#X connect 1 0 7 0;
#X connect 2 0 7 0;
#X connect 3 0 7 0;
#X connect 4 0 5 0;
#X connect 5 0 3 0;
#X connect 5 1 1 0;
#X connect 5 2 2 0;
#X connect 5 3 0 0;
#X restore 359 30 pd wii_buttons-up-down-left-right;
#N canvas 470 226 450 300 track_solo 0;
#X obj 187 30 inlet~;
#X obj 236 30 inlet~;
#X obj 285 30 inlet~;
#X obj 334 30 inlet~;
#X obj 134 31 inlet;
#X obj 68 288 outlet~;
#X obj 119 288 outlet~;
#X obj 170 288 outlet~;
#X obj 221 288 outlet~;
#X obj 93 146 t b b b;
#X obj 92 110 route 0 1 2 3;
#X obj 153 147 t b b b;
#X obj 210 148 t b b b;
#X obj 270 149 t b b b;
#X msg 85 212 0;
#X msg 138 214 0;
#X msg 184 216 0;
#X msg 228 215 0;
#X msg 26 195 1;
#X obj 72 239 *~ 1;
#X obj 117 239 *~ 1;
#X obj 167 239 *~ 1;
#X obj 213 239 *~ 1;
#X obj 22 56 sel 2 0;
#X obj 105 78 float;
#X obj 21 11 r wii-btn02-set;
#X connect 0 0 19 0;
#X connect 1 0 20 0;
#X connect 2 0 21 0;
#X connect 3 0 22 0;
#X connect 4 0 24 1;
#X connect 9 0 15 0;
#X connect 9 1 16 0;
#X connect 9 2 17 0;
#X connect 10 0 9 0;
#X connect 10 1 11 0;
#X connect 10 2 12 0;
#X connect 10 3 13 0;
#X connect 11 0 14 0;
#X connect 11 1 16 0;
#X connect 11 2 17 0;
#X connect 12 0 14 0;
#X connect 12 1 15 0;
#X connect 12 2 17 0;
#X connect 13 0 14 0;
#X connect 13 1 15 0;
#X connect 13 2 16 0;
#X connect 14 0 19 1;
#X connect 15 0 20 1;
#X connect 16 0 21 1;
#X connect 17 0 22 1;
#X connect 18 0 19 1;
#X connect 18 0 20 1;
#X connect 18 0 21 1;
#X connect 18 0 22 1;
#X connect 19 0 5 0;
#X connect 20 0 6 0;
#X connect 21 0 7 0;
#X connect 22 0 8 0;
#X connect 23 0 24 0;
#X connect 23 1 18 0;
#X connect 24 0 10 0;
#X connect 25 0 23 0;
#X restore 361 89 pd track_solo;
#N canvas 374 124 450 300 clear_track 0;
#X obj 33 135 tabwrite~ loopArray0;
#X obj 33 154 tabwrite~ loopArray1;
#X obj 34 99 sig~;
#X floatatom 35 78 5 0 0 0 - - -, f 5;
#X obj 35 59 loadbang;
#X obj 165 33 inlet;
#X obj 122 33 inlet;
#X obj 123 66 float;
#X obj 9 120 bng 15 250 50 0 empty empty empty 17 7 0 10 -262144 -1
-1;
#X obj 124 95 route 0 1;
#X connect 2 0 0 0;
#X connect 2 0 1 0;
#X connect 3 0 2 0;
#X connect 4 0 3 0;
#X connect 4 0 8 0;
#X connect 5 0 7 1;
#X connect 6 0 7 0;
#X connect 7 0 9 0;
#X connect 8 0 0 0;
#X connect 8 0 1 0;
#X connect 9 0 0 0;
#X connect 9 1 1 0;
#X restore -132 4 pd clear_track;
#N canvas 760 186 450 300 global_mute 0;
#X obj 45 103 * 1;
#X obj 46 139 outlet;
#X obj 24 18 r wii-btn01-set;
#X text 233 48 1 = left2 = right4 = down8 = up;
#X obj 24 41 route 4;
#X msg 25 71 0;
#X msg 64 70 1;
#X floatatom 106 124 5 0 0 0 - - -, f 5;
#X connect 0 0 1 0;
#X connect 0 0 7 0;
#X connect 2 0 4 0;
#X connect 4 0 5 0;
#X connect 4 1 6 0;
#X connect 5 0 0 0;
#X connect 6 0 0 0;
#X restore 268 224 pd global_mute;
#X obj 67 -141 loadbang;
#X obj -24 -53 vsl 58 238 0 1 0 0 empty empty empty 0 -9 0 10 -262144
-1 -1 3246 1;
#N canvas 424 174 450 300 wii-pitch 0;
#X obj 79 199 outlet;
#X obj 79 38 r wii-pitch-set;
#X obj 79 128 average 10;
#X obj 79 152 change;
#X floatatom 78 176 5 0 0 0 - - -, f 5;
#X obj 79 106 expr ($f1+1.4)/3;
#X obj 298 159 tgl 15 0 empty empty empty 17 7 0 10 -262144 -1 -1 1
1;
#X obj 290 108 route 1 0;
#X obj 79 62 spigot;
#X floatatom 79 83 5 0 0 0 - - -, f 5;
#X obj 290 87 change;
#X obj 366 137 loadbang;
#X text 288 25 Holding B stops sound modification;
#X obj 289 47 r wii-btn02-set;
#X obj 290 67 expr if($f1 == 4 \, 1 \, 0);
#X connect 1 0 8 0;
#X connect 2 0 3 0;
#X connect 3 0 4 0;
#X connect 4 0 0 0;
#X connect 5 0 2 0;
#X connect 6 0 8 1;
#X connect 7 0 6 0;
#X connect 7 1 6 0;
#X connect 8 0 9 0;
#X connect 9 0 5 0;
#X connect 10 0 7 0;
#X connect 11 0 6 0;
#X connect 13 0 14 0;
#X connect 14 0 10 0;
#X restore -112 -72 pd wii-pitch;
#X obj 37 208 *~;
#X obj 242 201 *~;
#X obj 224 241 *~;
#X text -22 -76 Track 1;
#X obj 65 112 hradio 79 1 0 2 empty empty empty 0 -8 0 10 -262144 -1
-1 1;
#X text 265 -73 Track 2;
#X obj -132 -47 r wii-btn02-set;
#X obj -132 -22 route 128;
#N canvas 380 108 450 300 minus-plus 0;
#X obj 23 89 r wii-btn02-set;
#X obj 178 82 r wii-btn01-set;
#X obj 23 111 route 16;
#X obj 178 107 route 16;
#X msg 78 132 0;
#X msg 183 133 1;
#X obj 123 173 outlet;
#X connect 0 0 2 0;
#X connect 1 0 3 0;
#X connect 2 0 4 0;
#X connect 3 0 5 0;
#X connect 4 0 6 0;
#X connect 5 0 6 0;
#X restore 79 -116 pd minus-plus;
#X text 250 -132 Signal to record/output;
#X text 377 308 Total outgoing signal;
#X obj -24 245 s track-1-volume;
#X obj 289 202 s track-2-volume;
#X obj 78 338 s current-track;
#X text 176 338 sent to pd gui in main patch;
#X floatatom 296 255 5 0 0 0 - - -, f 5;
#X connect 0 0 15 1;
#X connect 0 0 26 0;
#X connect 2 0 4 3;
#X connect 2 0 16 0;
#X connect 4 0 14 0;
#X connect 4 1 15 0;
#X connect 5 0 0 0;
#X connect 6 1 4 0;
#X connect 10 0 16 1;
#X connect 10 0 29 0;
#X connect 11 0 18 0;
#X connect 12 0 14 1;
#X connect 12 0 25 0;
#X connect 13 0 12 0;
#X connect 14 0 16 0;
#X connect 15 0 16 0;
#X connect 16 0 1 0;
#X connect 18 0 4 1;
#X connect 18 0 9 1;
#X connect 18 0 27 0;
#X connect 20 0 21 0;
#X connect 21 0 9 0;
#X connect 22 0 18 0;
#X coords 0 -1 1 1 347 287 1 -27 -91;
