#N canvas 504 18 577 329 10;
#X obj 325 -55 vsl 15 84 0 1 0 0 empty empty empty 0 -9 0 10 -262144
-1 -1 5929 1;
#X obj 140 150 outlet~;
#X obj 178 -81 inlet~;
#X text 117 -124 Current Track;
#X obj 97 7 looper;
#N canvas 664 251 450 300 nc-yaxis 0;
#X obj 11 92 average 10;
#X obj 11 113 change;
#X floatatom 11 134 5 0 0 0 - - -, f 5;
#X obj 11 9 r nc-accY-set;
#X obj 11 154 outlet;
#X obj 193 32 r nunchuk-btn-set;
#X obj 202 144 tgl 15 0 empty empty empty 17 7 0 10 -262144 -1 -1 1
1;
#X obj 194 93 route 1 0;
#X obj 171 180 spigot;
#X floatatom 171 201 5 0 0 0 - - -, f 5;
#X obj 194 52 expr if($f1 == 1 \, 1 \, 0);
#X obj 194 72 change;
#X obj 270 122 loadbang;
#X text 192 10 Holding Z stops sound modification;
#X obj 11 30 expr (($f1*-1)+1)/2;
#X floatatom 97 88 5 0 0 0 - - -, f 5;
#X obj 14 56 * 1.4;
#X connect 0 0 1 0;
#X connect 1 0 2 0;
#X connect 2 0 4 0;
#X connect 3 0 14 0;
#X connect 5 0 10 0;
#X connect 6 0 8 1;
#X connect 7 0 6 0;
#X connect 7 1 6 0;
#X connect 8 0 9 0;
#X connect 10 0 11 0;
#X connect 11 0 7 0;
#X connect 12 0 6 0;
#X connect 14 0 16 0;
#X connect 16 0 15 0;
#X connect 16 0 0 0;
#X restore 325 -75 pd nc-yaxis;
#N canvas 354 104 450 300 wii_buttons-a-b 0;
#X obj 13 85 r wii-btn02-set;
#X obj 13 110 route 4 8;
#X obj 4 139 outlet;
#X obj 56 141 outlet;
#X connect 0 0 1 0;
#X connect 1 0 2 0;
#X connect 1 1 3 0;
#X restore -55 -11 pd wii_buttons-a-b;
#N canvas 374 124 450 300 clear_track 0;
#X obj 33 135 tabwrite~ loopArray0;
#X obj 33 154 tabwrite~ loopArray1;
#X obj 34 99 sig~;
#X floatatom 35 78 5 0 0 0 - - -, f 5;
#X obj 35 59 loadbang;
#X obj 165 33 inlet;
#X obj 122 33 inlet;
#X obj 123 66 float;
#X obj 9 120 bng 15 250 50 0 empty empty empty 17 7 0 10 -262144 -1
-1;
#X obj 124 95 route 0 1;
#X connect 2 0 0 0;
#X connect 2 0 1 0;
#X connect 3 0 2 0;
#X connect 4 0 3 0;
#X connect 4 0 8 0;
#X connect 5 0 7 1;
#X connect 6 0 7 0;
#X connect 7 0 9 0;
#X connect 8 0 0 0;
#X connect 8 0 1 0;
#X connect 9 0 0 0;
#X connect 9 1 1 0;
#X restore -2 -57 pd clear_track;
#N canvas 760 186 450 300 global_mute 0;
#X obj 45 103 * 1;
#X obj 46 139 outlet;
#X obj 24 18 r wii-btn01-set;
#X text 233 48 1 = left2 = right4 = down8 = up;
#X obj 24 41 route 4;
#X msg 25 71 0;
#X msg 64 70 1;
#X floatatom 106 124 5 0 0 0 - - -, f 5;
#X connect 0 0 1 0;
#X connect 0 0 7 0;
#X connect 2 0 4 0;
#X connect 4 0 5 0;
#X connect 4 1 6 0;
#X connect 5 0 0 0;
#X connect 6 0 0 0;
#X restore 153 98 pd global_mute;
#X obj 55 -145 loadbang;
#X obj -129 -58 vsl 18 79 0 1 0 0 empty empty empty 0 -9 0 10 -262144
-1 -1 4645 1;
#N canvas 414 164 450 300 wii-pitch 0;
#X obj 79 199 outlet;
#X obj 79 38 r wii-pitch-set;
#X obj 79 128 average 10;
#X obj 79 152 change;
#X floatatom 78 176 5 0 0 0 - - -, f 5;
#X obj 79 65 expr ($f1+1.4)/3;
#X obj 298 159 tgl 15 0 empty empty empty 17 7 0 10 -262144 -1 -1 1
1;
#X obj 290 108 route 1 0;
#X obj 269 192 spigot;
#X floatatom 269 213 5 0 0 0 - - -, f 5;
#X obj 290 87 change;
#X obj 366 137 loadbang;
#X text 288 25 Holding B stops sound modification;
#X obj 289 47 r wii-btn02-set;
#X obj 290 67 expr if($f1 == 4 \, 1 \, 0);
#X obj 78 93 * 1.4;
#X connect 1 0 5 0;
#X connect 2 0 3 0;
#X connect 3 0 4 0;
#X connect 4 0 0 0;
#X connect 5 0 15 0;
#X connect 6 0 8 1;
#X connect 7 0 6 0;
#X connect 7 1 6 0;
#X connect 8 0 9 0;
#X connect 10 0 7 0;
#X connect 11 0 6 0;
#X connect 13 0 14 0;
#X connect 14 0 10 0;
#X connect 15 0 2 0;
#X restore -129 -78 pd wii-pitch;
#X obj 97 35 *~;
#X obj 131 35 *~;
#X obj 140 120 *~;
#X text -129 -98 Track 1;
#X obj 109 -103 hradio 31 1 0 2 current_track empty empty 0 -8 0 10
-262144 -1 -1 0;
#X text 325 -95 Track 2;
#X obj -2 -97 r wii-btn02-set;
#X obj -2 -77 route 128;
#N canvas 380 108 450 300 minus-plus 0;
#X obj 23 89 r wii-btn02-set;
#X obj 178 82 r wii-btn01-set;
#X obj 23 111 route 16;
#X obj 178 107 route 16;
#X msg 78 132 0;
#X msg 183 133 1;
#X obj 123 173 outlet;
#X connect 0 0 2 0;
#X connect 1 0 3 0;
#X connect 2 0 4 0;
#X connect 3 0 5 0;
#X connect 4 0 6 0;
#X connect 5 0 6 0;
#X restore 112 -145 pd minus-plus;
#X text 177 -102 Signal to record/output;
#X text 190 150 Total outgoing signal;
#X obj -129 29 s track-1-volume;
#X obj 325 37 s track-2-volume;
#X connect 0 0 13 1;
#X connect 0 0 24 0;
#X connect 2 0 4 3;
#X connect 2 0 14 0;
#X connect 2 0 4 2;
#X connect 4 0 12 0;
#X connect 4 1 13 0;
#X connect 5 0 0 0;
#X connect 6 1 4 0;
#X connect 8 0 14 1;
#X connect 9 0 16 0;
#X connect 10 0 12 1;
#X connect 10 0 23 0;
#X connect 11 0 10 0;
#X connect 12 0 14 0;
#X connect 13 0 14 0;
#X connect 14 0 1 0;
#X connect 16 0 7 1;
#X connect 16 0 4 1;
#X connect 18 0 19 0;
#X connect 19 0 7 0;
#X connect 20 0 16 0;
#X coords 0 0 1 1 347 287 0;
