#N canvas 414 164 450 300 10;
#X declare -lib maxlib;
#X obj 77 115 osc~;
#X obj 113 115 osc~;
#X obj 83 64 mtof;
#X floatatom 85 23 5 0 0 0 - - -, f 5;
#X obj 133 78 * 2;
#X obj 78 149 *~;
#X obj 75 219 l2ork_output~;
#N canvas 530 125 479 260 pre-dac 0;
#X obj 92 115 r filter_freq;
#X obj -13 -21 inlet~;
#X obj -13 201 outlet~;
#X obj 42 201 outlet~;
#X obj 124 21 loadbang;
#X obj -12 113 freeverb~;
#X obj -12 93 +~ 1e-07;
#X text 47 91 <-- fix freeverb not liking zeros and thus hogging the
cpu;
#X obj -13 164 svf~ 150;
#X obj 92 136 sig~;
#X obj 31 136 sig~ 0.01;
#X obj -1 52 svf~ 150;
#X obj 45 25 sig~ 0.01;
#X obj 39 2 sig~;
#X obj 39 -19 r bandpass_freq;
#X obj 137 -19 r bandpass_q;
#X obj -13 13 *~ -1;
#X msg 124 42 roomsize 0.5 \, wet 0.2 \, dry 0.9 \, width 0 \, damping
0.3;
#X connect 0 0 9 0;
#X connect 1 0 16 0;
#X connect 4 0 17 0;
#X connect 5 0 8 0;
#X connect 6 0 5 0;
#X connect 8 0 3 0;
#X connect 8 1 2 0;
#X connect 9 0 8 1;
#X connect 10 0 8 2;
#X connect 12 0 11 2;
#X connect 13 0 11 1;
#X connect 14 0 13 0;
#X connect 15 0 12 0;
#X connect 16 0 11 0;
#X connect 16 0 6 0;
#X connect 17 0 5 0;
#X restore 86 186 pd pre-dac;
#X obj 207 88 vsl 15 128 0 1 0 0 empty empty empty 0 -9 0 10 -262144
-1 -1 1150 1;
#X connect 0 0 5 0;
#X connect 1 0 5 0;
#X connect 2 0 0 0;
#X connect 2 0 4 0;
#X connect 3 0 2 0;
#X connect 4 0 1 1;
#X connect 5 0 7 0;
#X connect 7 0 6 0;
#X connect 7 1 6 1;
#X connect 8 0 5 1;
