#N canvas 404 154 450 300 10;
#X obj 89 248 line~;
#X obj 89 113 snapshot~;
#X obj 88 90 metro 50;
#X obj 88 52 loadbang;
#X obj 88 71 tgl 15 0 empty empty empty 17 7 0 10 -262144 -1 -1 1 1
;
#X obj 89 186 route 1 -1;
#X obj 94 163 change;
#X msg 115 215 0 500;
#X msg 71 214 1 500;
#X obj 91 143 expr if($f1 < 24000 \, 1 \, if($f1 >= 168000 \, -1 \,
0));
#X obj 195 30 inlet~;
#X obj 69 279 outlet~;
#X obj 5 225 inlet~;
#X obj 34 256 *~;
#X connect 0 0 13 1;
#X connect 1 0 9 0;
#X connect 2 0 1 0;
#X connect 3 0 4 0;
#X connect 4 0 2 0;
#X connect 5 0 8 0;
#X connect 5 1 7 0;
#X connect 6 0 5 0;
#X connect 7 0 0 0;
#X connect 8 0 0 0;
#X connect 9 0 6 0;
#X connect 10 0 1 0;
#X connect 12 0 13 0;
#X connect 13 0 11 0;
