#N canvas 57 24 1311 718 10;
#X declare -lib maxlib;
#X obj 388 55 @pd_extra/K12/wii_connect 0;
#X obj 389 154 @pd_extra/K12/wii_speed 0;
#N canvas 0 0 450 300 (subpatch) 0;
#X array file 195341 float 2 black black;
#X coords 0 1 195341 -1 200 140 1;
#X restore 841 356 graph;
#X obj 630 127 soundfiler;
#X obj 630 147 expr 44100 /$f1;
#X obj 630 169 phasor~;
#X obj 630 198 *~;
#X obj 629 230 tabread4~ file;
#X obj 628 394 l2ork_output~;
#N canvas 530 125 479 260 pre-dac 0;
#X obj 92 115 r filter_freq;
#X obj -13 -21 inlet~;
#X obj -13 201 outlet~;
#X obj 42 201 outlet~;
#X obj 124 21 loadbang;
#X obj -12 113 freeverb~;
#X obj -12 93 +~ 1e-07;
#X text 47 91 <-- fix freeverb not liking zeros and thus hogging the
cpu;
#X obj -13 164 svf~ 150;
#X obj 92 136 sig~;
#X obj 31 136 sig~ 0.01;
#X obj -1 52 svf~ 150;
#X obj 45 25 sig~ 0.01;
#X obj 39 2 sig~;
#X obj 39 -19 r bandpass_freq;
#X obj 137 -19 r bandpass_q;
#X obj -13 13 *~ -1;
#X msg 124 42 roomsize 0.5 \, wet 0.2 \, dry 0.9 \, width 0 \, damping
0.3;
#X connect 0 0 9 0;
#X connect 1 0 16 0;
#X connect 4 0 17 0;
#X connect 5 0 8 0;
#X connect 6 0 5 0;
#X connect 8 0 3 0;
#X connect 8 1 2 0;
#X connect 9 0 8 1;
#X connect 10 0 8 2;
#X connect 12 0 11 2;
#X connect 13 0 11 1;
#X connect 14 0 13 0;
#X connect 15 0 12 0;
#X connect 16 0 11 0;
#X connect 16 0 6 0;
#X connect 17 0 5 0;
#X restore 628 358 pd pre-dac;
#X obj 704 351 loadbang;
#X msg 704 371 100;
#X msg 733 371 1;
#X obj 735 397 tgl 15 0 empty l2ork-client-connection-gui connection
17 7 0 8 -262144 -1 -1 0 1;
#X obj 627 306 *~;
#X msg 543 107 read -resize Audio/snakehiss.wav file;
#X obj 436 252 abs;
#X obj 473 270 average 15;
#X obj 822 61 hradio 15 1 0 4 empty empty empty 0 -8 0 10 -262144 -1
-1 0;
#X msg 795 108 read -resize Audio/snakehiss.wav file;
#X connect 0 0 1 0;
#X connect 1 0 16 0;
#X connect 3 0 4 0;
#X connect 3 0 6 1;
#X connect 4 0 5 0;
#X connect 5 0 6 0;
#X connect 6 0 7 0;
#X connect 7 0 14 0;
#X connect 9 0 8 0;
#X connect 9 1 8 1;
#X connect 10 0 11 0;
#X connect 10 0 12 0;
#X connect 11 0 8 6;
#X connect 12 0 8 7;
#X connect 14 0 9 0;
#X connect 15 0 3 0;
#X connect 16 0 17 0;
#X connect 17 0 14 1;
